<svg width="170" height="26" viewBox="0 0 170 26" fill="none" xmlns="http://www.w3.org/2000/svg">
<path d="M12.365 2.99236C12.6697 2.08235 13.9568 2.08235 14.2615 2.99236L16.0738 8.40504C16.2103 8.81274 16.5921 9.08755 17.022 9.08755H22.8213C23.7972 9.08755 24.1951 10.3424 23.3975 10.9048L18.7579 14.1761C18.3969 14.4306 18.2457 14.8919 18.3859 15.3108L20.1702 20.6399C20.4769 21.556 19.4352 22.3314 18.6457 21.7747L13.8895 18.4212C13.544 18.1776 13.0826 18.1776 12.737 18.4212L7.98087 21.7747C7.19135 22.3314 6.14966 21.556 6.45637 20.6399L8.24062 15.3108C8.38087 14.8919 8.22964 14.4306 7.8686 14.1761L3.22903 10.9048C2.43139 10.3424 2.8293 9.08755 3.80528 9.08755H9.60451C10.0344 9.08755 10.4163 8.81274 10.5528 8.40504L12.365 2.99236Z" fill="#070707"/>
<path d="M48.2088 2.99236C48.5134 2.08235 49.8006 2.08235 50.1053 2.99236L51.9175 8.40504C52.054 8.81274 52.4358 9.08755 52.8658 9.08755H58.665C59.641 9.08755 60.0389 10.3424 59.2413 10.9048L54.6017 14.1761C54.2407 14.4306 54.0894 14.8919 54.2297 15.3108L56.0139 20.6399C56.3206 21.556 55.2789 22.3314 54.4894 21.7747L49.7333 18.4212C49.3877 18.1776 48.9263 18.1776 48.5808 18.4212L43.8246 21.7747C43.0351 22.3314 41.9934 21.556 42.3001 20.6399L44.0844 15.3108C44.2246 14.8919 44.0734 14.4306 43.7123 14.1761L39.0728 10.9048C38.2751 10.3424 38.6731 9.08755 39.649 9.08755H45.4483C45.8782 9.08755 46.26 8.81274 46.3965 8.40504L48.2088 2.99236Z" fill="#070707"/>
<path d="M84.0525 2.99236C84.3572 2.08235 85.6443 2.08235 85.949 2.99236L87.7613 8.40504C87.8978 8.81274 88.2796 9.08755 88.7095 9.08755H94.5088C95.4847 9.08755 95.8826 10.3424 95.085 10.9048L90.4454 14.1761C90.0844 14.4306 89.9332 14.8919 90.0734 15.3108L91.8577 20.6399C92.1644 21.556 91.1227 22.3314 90.3332 21.7747L85.577 18.4212C85.2315 18.1776 84.7701 18.1776 84.4245 18.4212L79.6684 21.7747C78.8788 22.3314 77.8372 21.556 78.1439 20.6399L79.9281 15.3108C80.0684 14.8919 79.9171 14.4306 79.5561 14.1761L74.9165 10.9048C74.1189 10.3424 74.5168 9.08755 75.4928 9.08755H81.292C81.7219 9.08755 82.1038 8.81274 82.2403 8.40504L84.0525 2.99236Z" fill="#070707"/>
<path d="M119.895 2.99236C120.2 2.08235 121.487 2.08235 121.792 2.99236L123.604 8.40504C123.741 8.81274 124.122 9.08755 124.552 9.08755H130.352C131.328 9.08755 131.725 10.3424 130.928 10.9048L126.288 14.1761C125.927 14.4306 125.776 14.8919 125.916 15.3108L127.7 20.6399C128.007 21.556 126.965 22.3314 126.176 21.7747L121.42 18.4212C121.074 18.1776 120.613 18.1776 120.267 18.4212L115.511 21.7747C114.722 22.3314 113.68 21.556 113.987 20.6399L115.771 15.3108C115.911 14.8919 115.76 14.4306 115.399 14.1761L110.759 10.9048C109.962 10.3424 110.36 9.08755 111.336 9.08755H117.135C117.565 9.08755 117.947 8.81274 118.083 8.40504L119.895 2.99236Z" fill="#E5E5E5"/>
<path d="M155.738 2.99236C156.043 2.08235 157.33 2.08235 157.635 2.99236L159.447 8.40504C159.583 8.81274 159.965 9.08755 160.395 9.08755H166.194C167.17 9.08755 167.568 10.3424 166.771 10.9048L162.131 14.1761C161.77 14.4306 161.619 14.8919 161.759 15.3108L163.543 20.6399C163.85 21.556 162.808 22.3314 162.019 21.7747L157.263 18.4212C156.917 18.1776 156.456 18.1776 156.11 18.4212L151.354 21.7747C150.564 22.3314 149.523 21.556 149.829 20.6399L151.614 15.3108C151.754 14.8919 151.603 14.4306 151.242 14.1761L146.602 10.9048C145.804 10.3424 146.202 9.08755 147.178 9.08755H152.978C153.407 9.08755 153.789 8.81274 153.926 8.40504L155.738 2.99236Z" fill="#E5E5E5"/>
</svg>
