<svg width="170" height="26" viewBox="0 0 170 26" fill="none" xmlns="http://www.w3.org/2000/svg">
<path d="M12.365 2.99397C12.6697 2.084 13.9568 2.084 14.2615 2.99397L16.0737 8.40603C16.2102 8.81371 16.592 9.0885 17.022 9.0885H22.8209C23.7969 9.0885 24.1948 10.3434 23.3971 10.9058L18.758 14.1764C18.3969 14.4309 18.2457 14.8923 18.3859 15.3112L20.1701 20.6394C20.4768 21.5554 19.4352 22.3308 18.6456 21.7742L13.8894 18.4211C13.5439 18.1775 13.0826 18.1775 12.737 18.4211L7.98087 21.7742C7.19133 22.3308 6.14968 21.5554 6.45642 20.6394L8.24055 15.3112C8.38083 14.8923 8.22958 14.4309 7.8685 14.1764L3.22936 10.9058C2.43167 10.3434 2.82956 9.0885 3.80556 9.0885H9.60451C10.0344 9.0885 10.4163 8.8137 10.5528 8.40602L12.365 2.99397Z" fill="#070707"/>
<path d="M48.2087 2.99397C48.5134 2.084 49.8005 2.084 50.1052 2.99397L51.9175 8.40603C52.054 8.81371 52.4358 9.0885 52.8657 9.0885H58.6647C59.6407 9.0885 60.0386 10.3434 59.2409 10.9058L54.6017 14.1764C54.2407 14.4309 54.0894 14.8923 54.2297 15.3112L56.0138 20.6394C56.3206 21.5554 55.2789 22.3308 54.4894 21.7742L49.7332 18.4211C49.3877 18.1775 48.9263 18.1775 48.5808 18.4211L43.8246 21.7742C43.0351 22.3308 41.9934 21.5554 42.3002 20.6394L44.0843 15.3112C44.2246 14.8923 44.0733 14.4309 43.7123 14.1764L39.0731 10.9058C38.2754 10.3434 38.6733 9.0885 39.6493 9.0885H45.4483C45.8782 9.0885 46.26 8.8137 46.3965 8.40602L48.2087 2.99397Z" fill="#070707"/>
<path d="M84.0515 2.99397C84.3562 2.084 85.6433 2.084 85.948 2.99397L87.7602 8.40603C87.8968 8.81371 88.2786 9.0885 88.7085 9.0885H94.5075C95.4834 9.0885 95.8813 10.3434 95.0837 10.9058L90.4445 14.1764C90.0834 14.4309 89.9322 14.8923 90.0725 15.3112L91.8566 20.6394C92.1633 21.5554 91.1217 22.3308 90.3321 21.7742L85.576 18.4211C85.2304 18.1775 84.7691 18.1775 84.4236 18.4211L79.6674 21.7742C78.8778 22.3308 77.8362 21.5554 78.1429 20.6394L79.9271 15.3112C80.0674 14.8923 79.9161 14.4309 79.555 14.1764L74.9159 10.9058C74.1182 10.3434 74.5161 9.0885 75.4921 9.0885H81.291C81.721 9.0885 82.1028 8.8137 82.2393 8.40602L84.0515 2.99397Z" fill="#070707"/>
<path d="M119.895 2.99397C120.199 2.084 121.487 2.084 121.791 2.99397L123.604 8.40603C123.74 8.81371 124.122 9.0885 124.552 9.0885H130.351C131.327 9.0885 131.725 10.3434 130.927 10.9058L126.288 14.1764C125.927 14.4309 125.775 14.8923 125.916 15.3112L127.7 20.6394C128.007 21.5554 126.965 22.3308 126.175 21.7742L121.419 18.4211C121.074 18.1775 120.612 18.1775 120.267 18.4211L115.511 21.7742C114.721 22.3308 113.679 21.5554 113.986 20.6394L115.77 15.3112C115.911 14.8923 115.759 14.4309 115.398 14.1764L110.759 10.9058C109.961 10.3434 110.359 9.0885 111.335 9.0885H117.134C117.564 9.0885 117.946 8.8137 118.083 8.40602L119.895 2.99397Z" fill="#070707"/>
<path d="M155.739 2.99397C156.043 2.084 157.33 2.084 157.635 2.99397L159.447 8.40603C159.584 8.81371 159.966 9.0885 160.396 9.0885H166.194C167.17 9.0885 167.568 10.3434 166.771 10.9058L162.132 14.1764C161.77 14.4309 161.619 14.8923 161.759 15.3112L163.544 20.6394C163.85 21.5554 162.809 22.3308 162.019 21.7742L157.263 18.4211C156.917 18.1775 156.456 18.1775 156.111 18.4211L151.354 21.7742C150.565 22.3308 149.523 21.5554 149.83 20.6394L151.614 15.3112C151.754 14.8923 151.603 14.4309 151.242 14.1764L146.603 10.9058C145.805 10.3434 146.203 9.0885 147.179 9.0885H152.978C153.408 9.0885 153.79 8.8137 153.926 8.40602L155.739 2.99397Z" fill="#E5E5E5"/>
</svg>
