<svg width="170" height="26" viewBox="0 0 170 26" fill="none" xmlns="http://www.w3.org/2000/svg">
<path d="M12.3645 2.88255C12.6683 1.97069 13.9581 1.97069 14.262 2.88255L16.0744 8.32215C16.2105 8.73056 16.5926 9.00604 17.0231 9.00604H22.8337C23.8085 9.00604 24.2072 10.2585 23.4118 10.822L18.7545 14.1217C18.3952 14.3763 18.2447 14.836 18.3839 15.2538L20.173 20.6233C20.4785 21.5402 19.4348 22.3141 18.6462 21.7554L13.8914 18.3865C13.545 18.1411 13.0815 18.1411 12.7351 18.3865L7.98032 21.7554C7.19173 22.3141 6.14798 21.5402 6.45348 20.6233L8.24255 15.2538C8.38175 14.836 8.23126 14.3763 7.87194 14.1217L3.21467 10.822C2.41927 10.2585 2.81798 9.00604 3.79278 9.00604H9.60337C10.0339 9.00604 10.416 8.73055 10.5521 8.32215L12.3645 2.88255Z" fill="#070707"/>
<path d="M48.2083 2.88255C48.5121 1.97069 49.8019 1.97069 50.1057 2.88255L51.9181 8.32215C52.0542 8.73056 52.4364 9.00604 52.8669 9.00604H58.6775C59.6523 9.00604 60.051 10.2585 59.2556 10.822L54.5983 14.1217C54.239 14.3763 54.0885 14.836 54.2277 15.2538L56.0168 20.6233C56.3223 21.5402 55.2785 22.3141 54.4899 21.7554L49.7351 18.3865C49.3888 18.1411 48.9252 18.1411 48.5789 18.3865L43.8241 21.7554C43.0355 22.3141 41.9917 21.5402 42.2972 20.6233L44.0863 15.2538C44.2255 14.836 44.075 14.3763 43.7157 14.1217L39.0584 10.822C38.263 10.2585 38.6617 9.00604 39.6365 9.00604H45.4471C45.8776 9.00604 46.2598 8.73055 46.3958 8.32215L48.2083 2.88255Z" fill="#070707"/>
<path d="M84.051 2.88255C84.3549 1.97069 85.6447 1.97069 85.9485 2.88255L87.7609 8.32215C87.897 8.73056 88.2792 9.00604 88.7096 9.00604H94.5202C95.495 9.00604 95.8937 10.2585 95.0983 10.822L90.4411 14.1217C90.0817 14.3763 89.9313 14.836 90.0705 15.2538L91.8595 20.6233C92.165 21.5402 91.1213 22.3141 90.3327 21.7554L85.5779 18.3865C85.2315 18.1411 84.768 18.1411 84.4217 18.3865L79.6668 21.7554C78.8783 22.3141 77.8345 21.5402 78.14 20.6233L79.9291 15.2538C80.0683 14.836 79.9178 14.3763 79.5585 14.1217L74.9012 10.822C74.1058 10.2585 74.5045 9.00604 75.4793 9.00604H81.2899C81.7204 9.00604 82.1025 8.73055 82.2386 8.32215L84.051 2.88255Z" fill="#070707"/>
<path d="M119.894 2.88255C120.198 1.97069 121.488 1.97069 121.792 2.88255L123.604 8.32215C123.74 8.73056 124.122 9.00604 124.553 9.00604H130.363C131.338 9.00604 131.737 10.2585 130.942 10.822L126.284 14.1217C125.925 14.3763 125.775 14.836 125.914 15.2538L127.703 20.6233C128.008 21.5402 126.965 22.3141 126.176 21.7554L121.421 18.3865C121.075 18.1411 120.611 18.1411 120.265 18.3865L115.51 21.7554C114.722 22.3141 113.678 21.5402 113.983 20.6233L115.772 15.2538C115.912 14.836 115.761 14.3763 115.402 14.1217L110.744 10.822C109.949 10.2585 110.348 9.00604 111.323 9.00604H117.133C117.564 9.00604 117.946 8.73055 118.082 8.32215L119.894 2.88255Z" fill="#070707"/>
<path d="M155.738 2.88255C156.042 1.97069 157.332 1.97069 157.635 2.88255L159.448 8.32215C159.584 8.73056 159.966 9.00604 160.397 9.00604H166.207C167.182 9.00604 167.581 10.2585 166.785 10.822L162.128 14.1217C161.769 14.3763 161.618 14.836 161.757 15.2538L163.547 20.6233C163.852 21.5402 162.808 22.3141 162.02 21.7554L157.265 18.3865C156.919 18.1411 156.455 18.1411 156.109 18.3865L151.354 21.7554C150.565 22.3141 149.522 21.5402 149.827 20.6233L151.616 15.2538C151.755 14.836 151.605 14.3763 151.245 14.1217L146.588 10.822C145.793 10.2585 146.192 9.00604 147.166 9.00604H152.977C153.407 9.00604 153.79 8.73055 153.926 8.32215L155.738 2.88255Z" fill="#070707"/>
</svg>
